<svg width="100" height="80" viewBox="0 0 100 80" fill="none" xmlns="http://www.w3.org/2000/svg">
<rect width="100" height="80" fill="#2A273C"/>
<rect x="25" y="15" width="50" height="50" fill="#EBE8E8"/>
<rect width="80" height="80" transform="translate(10)" fill="#2A273C"/>
<path d="M73.5699 16.4299C70.4846 13.32 66.813 10.8532 62.7677 9.17215C58.7224 7.4911 54.3839 6.62926 50.0032 6.63652C45.6216 6.62966 41.2822 7.49167 37.2359 9.17267C33.1896 10.8537 29.5168 13.3203 26.4299 16.4299C13.4332 29.4232 13.4332 50.5732 26.4299 63.5699C29.5168 66.6803 33.1901 69.1474 37.2371 70.8285C41.2841 72.5095 45.6243 73.3711 50.0065 73.3632C54.387 73.3709 58.7254 72.5096 62.7706 70.8291C66.8159 69.1486 70.4876 66.6824 73.5732 63.5732C86.5699 50.5799 86.5699 29.4299 73.5699 16.4299ZM50.6032 13.3332H49.4065C49.6099 13.3299 49.8032 13.3032 50.0065 13.3032C50.2099 13.3032 50.3999 13.3299 50.6032 13.3332ZM70.8099 56.6665H63.3332L59.1399 65.0532C56.2146 66.1339 53.1217 66.6902 50.0032 66.6965C46.8789 66.6908 43.7802 66.1334 40.8499 65.0499L36.6665 56.6999H29.2165C26.468 53.2828 24.6092 49.2377 23.8065 44.9265L29.9999 36.6665L25.9465 28.5565C27.2399 25.8052 28.9979 23.2973 31.1432 21.1432C34.1458 18.1301 37.8262 15.8796 41.8765 14.5799L49.9999 19.9999L58.1265 14.5832C62.1757 15.8838 65.8556 18.1329 68.8599 21.1432C71.0029 23.2948 72.7596 25.7991 74.0532 28.5465L69.9999 36.6665L76.1932 44.9265C75.3942 49.2239 73.5448 53.2569 70.8099 56.6665Z" fill="white" fill-opacity="0.46"/>
<path d="M38.3333 36.6666L43.3333 49.9999H56.6666L61.6666 36.6666L50 28.3333L38.3333 36.6666Z" fill="white" fill-opacity="0.46"/>
<g filter="url(#filter0_d)">
<path d="M37.1094 41.6484C30.6771 39.7995 25.9896 37.5339 23.0469 34.8516C20.1302 32.1432 18.6719 28.8099 18.6719 24.8516C18.6719 20.3724 20.4557 16.6745 24.0234 13.7578C27.6172 10.8151 32.2786 9.34375 38.0078 9.34375C41.9141 9.34375 45.3906 10.099 48.4375 11.6094C51.5104 13.1198 53.8802 15.2031 55.5469 17.8594C57.2396 20.5156 58.0859 23.4193 58.0859 26.5703H50.5469C50.5469 23.1328 49.4531 20.4375 47.2656 18.4844C45.0781 16.5052 41.9922 15.5156 38.0078 15.5156C34.3099 15.5156 31.4193 16.3359 29.3359 17.9766C27.2786 19.5911 26.25 21.8438 26.25 24.7344C26.25 27.0521 27.2266 29.0182 29.1797 30.6328C31.1589 32.2214 34.5052 33.6797 39.2188 35.0078C43.9583 36.3359 47.6562 37.8073 50.3125 39.4219C52.9948 41.0104 54.974 42.8724 56.25 45.0078C57.5521 47.1432 58.2031 49.6562 58.2031 52.5469C58.2031 57.1562 56.4062 60.8542 52.8125 63.6406C49.2188 66.401 44.4141 67.7812 38.3984 67.7812C34.4922 67.7812 30.8464 67.0391 27.4609 65.5547C24.0755 64.0443 21.4583 61.987 19.6094 59.3828C17.7865 56.7786 16.875 53.8229 16.875 50.5156H24.4141C24.4141 53.9531 25.6771 56.6745 28.2031 58.6797C30.7552 60.6589 34.1536 61.6484 38.3984 61.6484C42.3568 61.6484 45.3906 60.8411 47.5 59.2266C49.6094 57.612 50.6641 55.4115 50.6641 52.625C50.6641 49.8385 49.6875 47.6901 47.7344 46.1797C45.7812 44.6432 42.2396 43.1328 37.1094 41.6484Z" fill="white"/>
<path d="M37.1094 41.6484L37.3873 40.6878L37.3856 40.6874L37.1094 41.6484ZM23.0469 34.8516L22.3664 35.5844L22.3732 35.5906L23.0469 34.8516ZM24.0234 13.7578L24.6564 14.532L24.657 14.5315L24.0234 13.7578ZM48.4375 11.6094L47.9933 12.5053L47.9964 12.5068L48.4375 11.6094ZM55.5469 17.8594L54.6998 18.3909L54.7036 18.3968L55.5469 17.8594ZM58.0859 26.5703V27.5703C58.6382 27.5703 59.0859 27.1226 59.0859 26.5703H58.0859ZM50.5469 26.5703H49.5469C49.5469 27.1226 49.9946 27.5703 50.5469 27.5703V26.5703ZM47.2656 18.4844L46.5947 19.2259L46.5996 19.2303L47.2656 18.4844ZM29.3359 17.9766L29.9533 18.7632L29.9546 18.7622L29.3359 17.9766ZM29.1797 30.6328L28.5425 31.4036C28.5463 31.4066 28.55 31.4097 28.5537 31.4127L29.1797 30.6328ZM39.2188 35.0078L38.9475 35.9703L38.9489 35.9707L39.2188 35.0078ZM50.3125 39.4219L49.7931 40.2765L49.8029 40.2823L50.3125 39.4219ZM56.25 45.0078L55.3916 45.5208L55.3962 45.5284L56.25 45.0078ZM52.8125 63.6406L53.4217 64.4337L53.4253 64.4309L52.8125 63.6406ZM27.4609 65.5547L27.0535 66.4679L27.0594 66.4705L27.4609 65.5547ZM19.6094 59.3828L18.7901 59.9563L18.794 59.9617L19.6094 59.3828ZM16.875 50.5156V49.5156C16.3227 49.5156 15.875 49.9633 15.875 50.5156H16.875ZM24.4141 50.5156H25.4141C25.4141 49.9633 24.9663 49.5156 24.4141 49.5156V50.5156ZM28.2031 58.6797L27.5813 59.463L27.5903 59.4699L28.2031 58.6797ZM47.7344 46.1797L47.1161 46.9657L47.1226 46.9707L47.7344 46.1797ZM37.3856 40.6874C31.0132 38.8556 26.4972 36.6435 23.7205 34.1125L22.3732 35.5906C25.4819 38.4242 30.3409 40.7433 36.8331 42.6095L37.3856 40.6874ZM23.7273 34.1188C21.0131 31.5985 19.6719 28.5301 19.6719 24.8516H17.6719C17.6719 29.0897 19.2473 32.688 22.3664 35.5844L23.7273 34.1188ZM19.6719 24.8516C19.6719 20.6823 21.3132 17.2651 24.6564 14.532L23.3905 12.9836C19.5982 16.0839 17.6719 20.0625 17.6719 24.8516H19.6719ZM24.657 14.5315C28.0333 11.7669 32.454 10.3438 38.0078 10.3438V8.34375C32.1032 8.34375 27.2011 9.86335 23.3899 12.9841L24.657 14.5315ZM38.0078 10.3438C41.7829 10.3438 45.1037 11.0729 47.9934 12.5053L48.8816 10.7134C45.6775 9.12505 42.0452 8.34375 38.0078 8.34375V10.3438ZM47.9964 12.5068C50.9185 13.9431 53.1408 15.9063 54.6998 18.3909L56.3939 17.3279C54.6196 14.5 52.1023 12.2965 48.8786 10.7119L47.9964 12.5068ZM54.7036 18.3968C56.2939 20.8924 57.0859 23.6096 57.0859 26.5703H59.0859C59.0859 23.229 58.1853 20.1389 56.3902 17.322L54.7036 18.3968ZM58.0859 25.5703H50.5469V27.5703H58.0859V25.5703ZM51.5469 26.5703C51.5469 22.9018 50.3688 19.9144 47.9316 17.7384L46.5996 19.2303C48.5375 20.9606 49.5469 23.3638 49.5469 26.5703H51.5469ZM47.9365 17.7428C45.5089 15.5464 42.152 14.5156 38.0078 14.5156V16.5156C41.8323 16.5156 44.6473 17.464 46.5947 19.2259L47.9365 17.7428ZM38.0078 14.5156C34.1725 14.5156 31.0349 15.3658 28.7172 17.1909L29.9546 18.7622C31.8036 17.3061 34.4473 16.5156 38.0078 16.5156V14.5156ZM28.7186 17.1899C26.3921 19.0158 25.25 21.5737 25.25 24.7344H27.25C27.25 22.1138 28.1652 20.1665 29.9533 18.7632L28.7186 17.1899ZM25.25 24.7344C25.25 27.3805 26.384 29.6191 28.5425 31.4036L29.8168 29.8621C28.0691 28.4173 27.25 26.7237 27.25 24.7344H25.25ZM28.5537 31.4127C30.6953 33.1315 34.2025 34.6333 38.9475 35.9703L39.49 34.0453C34.8079 32.726 31.6225 31.3112 29.8056 29.8529L28.5537 31.4127ZM38.9489 35.9707C43.6455 37.2868 47.2463 38.7284 49.7931 40.2764L50.8319 38.5674C48.0662 36.8862 44.2712 35.3851 39.4886 34.0449L38.9489 35.9707ZM49.8029 40.2823C52.3775 41.807 54.22 43.5602 55.3916 45.5208L57.1084 44.4949C55.7279 42.1846 53.6121 40.2138 50.8221 38.5614L49.8029 40.2823ZM55.3962 45.5284C56.5886 47.4839 57.2031 49.8108 57.2031 52.5469H59.2031C59.2031 49.5017 58.5156 46.8026 57.1038 44.4872L55.3962 45.5284ZM57.2031 52.5469C57.2031 56.8521 55.5453 60.2563 52.1997 62.8503L53.4253 64.4309C57.2672 61.452 59.2031 57.4604 59.2031 52.5469H57.2031ZM52.2033 62.8476C48.8339 65.4357 44.2657 66.7812 38.3984 66.7812V68.7812C44.5624 68.7812 49.6036 67.3664 53.4217 64.4337L52.2033 62.8476ZM38.3984 66.7812C34.6224 66.7812 31.1142 66.0646 27.8625 64.6389L27.0594 66.4705C30.5785 68.0135 34.3619 68.7812 38.3984 68.7812V66.7812ZM27.8684 64.6415C24.6198 63.1921 22.1544 61.2401 20.4248 58.8039L18.794 59.9617C20.7622 62.7339 23.5312 64.8965 27.0535 66.4679L27.8684 64.6415ZM20.4286 58.8094C18.7283 56.3803 17.875 53.6266 17.875 50.5156H15.875C15.875 54.0193 16.8446 57.1769 18.7901 59.9563L20.4286 58.8094ZM16.875 51.5156H24.4141V49.5156H16.875V51.5156ZM23.4141 50.5156C23.4141 54.2351 24.7988 57.2541 27.5814 59.4629L28.8249 57.8965C26.5554 56.0949 25.4141 53.6712 25.4141 50.5156H23.4141ZM27.5903 59.4699C30.3659 61.6224 34.0017 62.6484 38.3984 62.6484V60.6484C34.3056 60.6484 31.1445 59.6953 28.8159 57.8895L27.5903 59.4699ZM38.3984 62.6484C42.4736 62.6484 45.7569 61.8201 48.1078 60.0206L46.8922 58.4325C45.0244 59.8622 42.2399 60.6484 38.3984 60.6484V62.6484ZM48.1078 60.0206C50.4782 58.2063 51.6641 55.705 51.6641 52.625H49.6641C49.6641 55.1179 48.7406 57.0177 46.8922 58.4325L48.1078 60.0206ZM51.6641 52.625C51.6641 49.5743 50.5779 47.1145 48.3461 45.3886L47.1226 46.9707C48.7971 48.2657 49.6641 50.1028 49.6641 52.625H51.6641ZM48.3527 45.3937C46.2365 43.729 42.5317 42.1763 37.3873 40.6878L36.8314 42.609C41.9474 44.0893 45.326 45.5575 47.1161 46.9656L48.3527 45.3937Z" fill="white"/>
</g>
<g filter="url(#filter1_d)">
<path d="M65.1406 60.8672H92.0938V67H57.6016V10.125H65.1406V60.8672Z" fill="#FFC107"/>
<path d="M65.1406 60.8672H64.1406C64.1406 61.4195 64.5883 61.8672 65.1406 61.8672V60.8672ZM92.0938 60.8672H93.0938C93.0938 60.3149 92.646 59.8672 92.0938 59.8672V60.8672ZM92.0938 67V68C92.646 68 93.0938 67.5523 93.0938 67H92.0938ZM57.6016 67H56.6016C56.6016 67.5523 57.0493 68 57.6016 68V67ZM57.6016 10.125V9.125C57.0493 9.125 56.6016 9.57272 56.6016 10.125H57.6016ZM65.1406 10.125H66.1406C66.1406 9.57272 65.6929 9.125 65.1406 9.125V10.125ZM65.1406 61.8672H92.0938V59.8672H65.1406V61.8672ZM91.0938 60.8672V67H93.0938V60.8672H91.0938ZM92.0938 66H57.6016V68H92.0938V66ZM58.6016 67V10.125H56.6016V67H58.6016ZM57.6016 11.125H65.1406V9.125H57.6016V11.125ZM64.1406 10.125V60.8672H66.1406V10.125H64.1406Z" fill="#FFC107"/>
</g>
<defs>
<filter id="filter0_d" x="11.875" y="8.34375" width="51.3281" height="68.4375" filterUnits="userSpaceOnUse" color-interpolation-filters="sRGB">
<feFlood flood-opacity="0" result="BackgroundImageFix"/>
<feColorMatrix in="SourceAlpha" type="matrix" values="0 0 0 0 0 0 0 0 0 0 0 0 0 0 0 0 0 0 127 0"/>
<feOffset dy="4"/>
<feGaussianBlur stdDeviation="2"/>
<feColorMatrix type="matrix" values="0 0 0 0 0.928571 0 0 0 0 0.916667 0 0 0 0 1 0 0 0 1 0"/>
<feBlend mode="normal" in2="BackgroundImageFix" result="effect1_dropShadow"/>
<feBlend mode="normal" in="SourceGraphic" in2="effect1_dropShadow" result="shape"/>
</filter>
<filter id="filter1_d" x="52.6016" y="9.125" width="44.4922" height="66.875" filterUnits="userSpaceOnUse" color-interpolation-filters="sRGB">
<feFlood flood-opacity="0" result="BackgroundImageFix"/>
<feColorMatrix in="SourceAlpha" type="matrix" values="0 0 0 0 0 0 0 0 0 0 0 0 0 0 0 0 0 0 127 0"/>
<feOffset dy="4"/>
<feGaussianBlur stdDeviation="2"/>
<feColorMatrix type="matrix" values="0 0 0 0 1 0 0 0 0 0.756863 0 0 0 0 0.027451 0 0 0 1 0"/>
<feBlend mode="normal" in2="BackgroundImageFix" result="effect1_dropShadow"/>
<feBlend mode="normal" in="SourceGraphic" in2="effect1_dropShadow" result="shape"/>
</filter>
</defs>
</svg>
