<svg width="120" height="120" viewBox="0 0 120 120" fill="none" xmlns="http://www.w3.org/2000/svg">
<circle cx="60" cy="60" r="60" fill="#2A273C"/>
<path d="M26.9283 60.1973C25.9634 59.9199 25.2603 59.5801 24.8189 59.1777C24.3814 58.7715 24.1627 58.2715 24.1627 57.6777C24.1627 57.0059 24.4302 56.4512 24.9654 56.0137C25.5045 55.5723 26.2037 55.3516 27.063 55.3516C27.649 55.3516 28.1705 55.4648 28.6275 55.6914C29.0884 55.918 29.4439 56.2305 29.6939 56.6289C29.9478 57.0273 30.0748 57.4629 30.0748 57.9355H28.9439C28.9439 57.4199 28.7798 57.0156 28.4517 56.7227C28.1236 56.4258 27.6607 56.2773 27.063 56.2773C26.5084 56.2773 26.0748 56.4004 25.7623 56.6465C25.4537 56.8887 25.2994 57.2266 25.2994 57.6602C25.2994 58.0078 25.4459 58.3027 25.7388 58.5449C26.0357 58.7832 26.5377 59.002 27.2447 59.2012C27.9556 59.4004 28.5103 59.6211 28.9088 59.8633C29.3111 60.1016 29.608 60.3809 29.7994 60.7012C29.9947 61.0215 30.0923 61.3984 30.0923 61.832C30.0923 62.5234 29.8228 63.0781 29.2838 63.4961C28.7447 63.9102 28.024 64.1172 27.1216 64.1172C26.5357 64.1172 25.9888 64.0059 25.481 63.7832C24.9732 63.5566 24.5806 63.248 24.3033 62.8574C24.0298 62.4668 23.8931 62.0234 23.8931 61.5273H25.024C25.024 62.043 25.2134 62.4512 25.5923 62.752C25.9752 63.0488 26.4849 63.1973 27.1216 63.1973C27.7154 63.1973 28.1705 63.0762 28.4869 62.834C28.8033 62.5918 28.9615 62.2617 28.9615 61.8438C28.9615 61.4258 28.815 61.1035 28.522 60.877C28.2291 60.6465 27.6978 60.4199 26.9283 60.1973ZM34.9446 60.6602V64H33.8196V55.4688H36.9661C37.8997 55.4688 38.6302 55.707 39.1575 56.1836C39.6888 56.6602 39.9544 57.291 39.9544 58.0762C39.9544 58.9043 39.6946 59.543 39.1751 59.9922C38.6595 60.4375 37.9192 60.6602 36.9544 60.6602H34.9446ZM34.9446 59.7402H36.9661C37.5677 59.7402 38.0286 59.5996 38.3489 59.3184C38.6692 59.0332 38.8294 58.623 38.8294 58.0879C38.8294 57.5801 38.6692 57.1738 38.3489 56.8691C38.0286 56.5645 37.5891 56.4062 37.0305 56.3945H34.9446V59.7402ZM50.2324 60.0098C50.2324 60.8457 50.0918 61.5762 49.8105 62.2012C49.5293 62.8223 49.1309 63.2969 48.6152 63.625C48.0996 63.9531 47.498 64.1172 46.8105 64.1172C46.1387 64.1172 45.543 63.9531 45.0234 63.625C44.5039 63.293 44.0996 62.8223 43.8105 62.2129C43.5254 61.5996 43.3789 60.8906 43.3711 60.0859V59.4707C43.3711 58.6504 43.5137 57.9258 43.7988 57.2969C44.084 56.668 44.4863 56.1875 45.0059 55.8555C45.5293 55.5195 46.127 55.3516 46.7988 55.3516C47.4824 55.3516 48.084 55.5176 48.6035 55.8496C49.127 56.1777 49.5293 56.6562 49.8105 57.2852C50.0918 57.9102 50.2324 58.6387 50.2324 59.4707V60.0098ZM49.1133 59.459C49.1133 58.4473 48.9102 57.6719 48.5039 57.1328C48.0977 56.5898 47.5293 56.3184 46.7988 56.3184C46.0879 56.3184 45.5273 56.5898 45.1172 57.1328C44.7109 57.6719 44.502 58.4219 44.4902 59.3828V60.0098C44.4902 60.9902 44.6953 61.7617 45.1055 62.3242C45.5195 62.8828 46.0879 63.1621 46.8105 63.1621C47.5371 63.1621 48.0996 62.8984 48.498 62.3711C48.8965 61.8398 49.1016 61.0801 49.1133 60.0918V59.459ZM57.3288 60.5488H55.3249V64H54.1941V55.4688H57.0183C57.9792 55.4688 58.7175 55.6875 59.2331 56.125C59.7527 56.5625 60.0124 57.1992 60.0124 58.0352C60.0124 58.5664 59.8679 59.0293 59.5788 59.4238C59.2937 59.8184 58.8952 60.1133 58.3835 60.3086L60.3874 63.9297V64H59.1804L57.3288 60.5488ZM55.3249 59.6289H57.0534C57.612 59.6289 58.0554 59.4844 58.3835 59.1953C58.7155 58.9062 58.8816 58.5195 58.8816 58.0352C58.8816 57.5078 58.7234 57.1035 58.407 56.8223C58.0945 56.541 57.6413 56.3984 57.0476 56.3945H55.3249V59.6289ZM69.3002 56.3945H66.558V64H65.4389V56.3945H62.7026V55.4688H69.3002V56.3945Z" fill="white"/>
<path d="M26.9283 60.1973L27.2062 59.2367L27.2045 59.2362L26.9283 60.1973ZM24.8189 59.1777L24.1384 59.9106L24.1453 59.9168L24.8189 59.1777ZM24.9654 56.0137L25.5983 56.7879L25.5989 56.7874L24.9654 56.0137ZM28.6275 55.6914L28.1834 56.5874L28.1864 56.5889L28.6275 55.6914ZM29.6939 56.6289L28.8468 57.1604L28.8506 57.1663L29.6939 56.6289ZM30.0748 57.9355V58.9355H31.0748V57.9355H30.0748ZM28.9439 57.9355H27.9439V58.9355H28.9439V57.9355ZM28.4517 56.7227L27.7808 57.4642L27.7857 57.4686L28.4517 56.7227ZM25.7623 56.6465L26.3796 57.4331L26.381 57.4321L25.7623 56.6465ZM25.7388 58.5449L25.1017 59.3157L25.1072 59.3203L25.1129 59.3248L25.7388 58.5449ZM27.2447 59.2012L26.9735 60.1637L26.9749 60.1641L27.2447 59.2012ZM28.9088 59.8633L28.3893 60.7179L28.3992 60.7237L28.9088 59.8633ZM29.7994 60.7012L28.9409 61.2141L28.9456 61.2218L29.7994 60.7012ZM29.2838 63.4961L29.8929 64.2892L29.8965 64.2864L29.2838 63.4961ZM25.481 63.7832L25.0736 64.6965L25.0795 64.699L25.481 63.7832ZM24.3033 62.8574L23.484 63.4309L23.4879 63.4363L24.3033 62.8574ZM23.8931 61.5273V60.5273H22.8931V61.5273H23.8931ZM25.024 61.5273H26.024V60.5273H25.024V61.5273ZM25.5923 62.752L24.9706 63.5352L24.9795 63.5422L25.5923 62.752ZM28.522 60.877L27.9037 61.6629L27.9103 61.668L28.522 60.877ZM27.2045 59.2362C26.2996 58.9761 25.768 58.6897 25.4926 58.4387L24.1453 59.9168C24.7527 60.4704 25.6273 60.8638 26.652 61.1583L27.2045 59.2362ZM25.4994 58.4449C25.2643 58.2267 25.1627 57.9917 25.1627 57.6777H23.1627C23.1627 58.5513 23.4985 59.3163 24.1385 59.9105L25.4994 58.4449ZM25.1627 57.6777C25.1627 57.3158 25.2877 57.0418 25.5983 56.7879L24.3325 55.2395C23.5727 55.8606 23.1627 56.6959 23.1627 57.6777H25.1627ZM25.5989 56.7874C25.9206 56.524 26.3791 56.3516 27.063 56.3516V54.3516C26.0283 54.3516 25.0884 54.6205 24.3318 55.24L25.5989 56.7874ZM27.063 56.3516C27.5179 56.3516 27.8836 56.4388 28.1834 56.5874L29.0716 54.7955C28.4574 54.4909 27.7801 54.3516 27.063 54.3516V56.3516ZM28.1864 56.5889C28.4965 56.7413 28.7045 56.9336 28.8468 57.1604L30.541 56.0974C30.1833 55.5273 29.6804 55.0946 29.0686 54.794L28.1864 56.5889ZM28.8506 57.1663C29.0021 57.4041 29.0748 57.6532 29.0748 57.9355H31.0748C31.0748 57.2726 30.8935 56.6506 30.5372 56.0915L28.8506 57.1663ZM30.0748 56.9355H28.9439V58.9355H30.0748V56.9355ZM29.9439 57.9355C29.9439 57.1889 29.6955 56.4926 29.1177 55.9767L27.7857 57.4686C27.8642 57.5387 27.9439 57.6509 27.9439 57.9355H29.9439ZM29.1226 55.9811C28.5544 55.467 27.8206 55.2773 27.063 55.2773V57.2773C27.5008 57.2773 27.6928 57.3846 27.7808 57.4642L29.1226 55.9811ZM27.063 55.2773C26.371 55.2773 25.6904 55.4302 25.1436 55.8608L26.381 57.4321C26.4591 57.3705 26.6458 57.2773 27.063 57.2773V55.2773ZM25.1449 55.8598C24.5671 56.3133 24.2994 56.9565 24.2994 57.6602H26.2994C26.2994 57.4967 26.3403 57.4641 26.3796 57.4331L25.1449 55.8598ZM24.2994 57.6602C24.2994 58.3362 24.6033 58.9037 25.1017 59.3157L26.376 57.7742C26.321 57.7287 26.3068 57.7012 26.3048 57.6973C26.3034 57.6944 26.3026 57.6921 26.3018 57.6887C26.301 57.6852 26.2994 57.6764 26.2994 57.6602H24.2994ZM25.1129 59.3248C25.5721 59.6934 26.235 59.9556 26.9735 60.1637L27.5159 58.2387C26.8404 58.0483 26.4993 57.873 26.3648 57.7651L25.1129 59.3248ZM26.9749 60.1641C27.6428 60.3512 28.1004 60.5422 28.3893 60.7178L29.4282 59.0088C28.9202 58.7 28.2685 58.4495 27.5145 58.2383L26.9749 60.1641ZM28.3992 60.7237C28.6938 60.8982 28.8541 61.0687 28.941 61.2141L30.6578 60.1882C30.3619 59.693 29.9284 59.305 29.4183 59.0029L28.3992 60.7237ZM28.9456 61.2218C29.0312 61.3622 29.0923 61.553 29.0923 61.832H31.0923C31.0923 61.2439 30.9582 60.6808 30.6532 60.1806L28.9456 61.2218ZM29.0923 61.832C29.0923 62.2193 28.9619 62.4803 28.671 62.7058L29.8965 64.2864C30.6837 63.676 31.0923 62.8276 31.0923 61.832H29.0923ZM28.6746 62.703C28.3598 62.9448 27.8756 63.1172 27.1216 63.1172V65.1172C28.1723 65.1172 29.1296 64.8755 29.8929 64.2891L28.6746 62.703ZM27.1216 63.1172C26.6659 63.1172 26.2567 63.0314 25.8826 62.8674L25.0795 64.699C25.721 64.9803 26.4055 65.1172 27.1216 65.1172V63.1172ZM25.8885 62.87C25.5175 62.7045 25.2767 62.5011 25.1187 62.2785L23.4879 63.4363C23.8845 63.995 24.4289 64.4088 25.0736 64.6964L25.8885 62.87ZM25.1225 62.284C24.9717 62.0685 24.8931 61.8271 24.8931 61.5273H22.8931C22.8931 62.2198 23.088 62.8651 23.484 63.4309L25.1225 62.284ZM23.8931 62.5273H25.024V60.5273H23.8931V62.5273ZM24.024 61.5273C24.024 62.3249 24.3352 63.0308 24.9706 63.5352L26.2141 61.9687C26.0917 61.8716 26.024 61.761 26.024 61.5273H24.024ZM24.9795 63.5422C25.5859 64.0124 26.3329 64.1973 27.1216 64.1973V62.1973C26.6369 62.1973 26.3644 62.0852 26.2052 61.9617L24.9795 63.5422ZM27.1216 64.1973C27.8322 64.1973 28.5367 64.0551 29.0947 63.6281L27.8791 62.0399C27.8042 62.0972 27.5985 62.1973 27.1216 62.1973V64.1973ZM29.0947 63.6281C29.6721 63.1861 29.9615 62.5553 29.9615 61.8438H27.9615C27.9615 61.9244 27.9469 61.9604 27.9411 61.9726C27.936 61.9832 27.9234 62.0059 27.8791 62.0399L29.0947 63.6281ZM29.9615 61.8438C29.9615 61.1616 29.7054 60.5279 29.1338 60.0859L27.9103 61.668C27.9342 61.6865 27.9385 61.6963 27.9413 61.7024C27.9457 61.7122 27.9615 61.752 27.9615 61.8438H29.9615ZM29.1403 60.091C28.6843 59.7322 27.99 59.4634 27.2062 59.2367L26.6503 61.1579C27.4057 61.3764 27.7739 61.5607 27.9037 61.6629L29.1403 60.091ZM34.9446 60.6602V59.6602H33.9446V60.6602H34.9446ZM34.9446 64V65H35.9446V64H34.9446ZM33.8196 64H32.8196V65H33.8196V64ZM33.8196 55.4688V54.4688H32.8196V55.4688H33.8196ZM39.1575 56.1836L38.487 56.9255L38.4897 56.928L39.1575 56.1836ZM39.1751 59.9922L39.8287 60.749L39.8291 60.7486L39.1751 59.9922ZM34.9446 59.7402H33.9446V60.7402H34.9446V59.7402ZM38.3489 59.3184L39.0087 60.0698L39.0138 60.0653L38.3489 59.3184ZM37.0305 56.3945L37.0515 55.3948L37.041 55.3945H37.0305V56.3945ZM34.9446 56.3945V55.3945H33.9446V56.3945H34.9446ZM33.9446 60.6602V64H35.9446V60.6602H33.9446ZM34.9446 63H33.8196V65H34.9446V63ZM34.8196 64V55.4688H32.8196V64H34.8196ZM33.8196 56.4688H36.9661V54.4688H33.8196V56.4688ZM36.9661 56.4688C37.7314 56.4688 38.195 56.6616 38.487 56.9255L39.828 55.4417C39.0654 54.7525 38.068 54.4688 36.9661 54.4688V56.4688ZM38.4897 56.928C38.787 57.1946 38.9544 57.5433 38.9544 58.0762H40.9544C40.9544 57.0388 40.5905 56.1257 39.8253 55.4392L38.4897 56.928ZM38.9544 58.0762C38.9544 58.6793 38.7758 59.0154 38.521 59.2357L39.8291 60.7486C40.6134 60.0705 40.9544 59.1293 40.9544 58.0762H38.9544ZM38.5215 59.2354C38.2504 59.4695 37.778 59.6602 36.9544 59.6602V61.6602C38.0604 61.6602 39.0685 61.4055 39.8287 60.749L38.5215 59.2354ZM36.9544 59.6602H34.9446V61.6602H36.9544V59.6602ZM34.9446 60.7402H36.9661V58.7402H34.9446V60.7402ZM36.9661 60.7402C37.7113 60.7402 38.4431 60.5664 39.0087 60.0698L37.6891 58.5669C37.6141 58.6328 37.424 58.7402 36.9661 58.7402V60.7402ZM39.0138 60.0653C39.5983 59.545 39.8294 58.8322 39.8294 58.0879H37.8294C37.8294 58.4139 37.7402 58.5214 37.684 58.5715L39.0138 60.0653ZM39.8294 58.0879C39.8294 57.3507 39.587 56.6667 39.0381 56.1446L37.6597 57.5937C37.7514 57.681 37.8294 57.8094 37.8294 58.0879H39.8294ZM39.0381 56.1446C38.4931 55.6262 37.7911 55.4103 37.0515 55.3948L37.0096 57.3943C37.3872 57.4022 37.5641 57.5027 37.6597 57.5937L39.0381 56.1446ZM37.0305 55.3945H34.9446V57.3945H37.0305V55.3945ZM33.9446 56.3945V59.7402H35.9446V56.3945H33.9446ZM49.8105 62.2012L50.7215 62.6137L50.7225 62.6115L49.8105 62.2012ZM45.0234 63.625L44.4849 64.4676L44.4894 64.4705L45.0234 63.625ZM43.8105 62.2129L42.9037 62.6345L42.907 62.6415L43.8105 62.2129ZM43.3711 60.0859H42.371L42.3711 60.0956L43.3711 60.0859ZM45.0059 55.8555L45.5444 56.6981L45.546 56.6971L45.0059 55.8555ZM48.6035 55.8496L48.065 56.6923L48.0724 56.6969L48.6035 55.8496ZM49.8105 57.2852L48.8977 57.6934L48.8986 57.6955L49.8105 57.2852ZM48.5039 57.1328L47.7032 57.7319L47.7053 57.7347L48.5039 57.1328ZM45.1172 57.1328L44.3193 56.5301L44.3186 56.531L45.1172 57.1328ZM44.4902 59.3828L43.4902 59.3706V59.3828H44.4902ZM45.1055 62.3242L44.2974 62.9134L44.3021 62.9197L45.1055 62.3242ZM48.498 62.3711L49.2959 62.9739L49.298 62.9711L48.498 62.3711ZM49.1133 60.0918L50.1133 60.1037V60.0918H49.1133ZM49.2324 60.0098C49.2324 60.7346 49.1105 61.3199 48.8986 61.7908L50.7225 62.6115C51.0731 61.8324 51.2324 60.9568 51.2324 60.0098H49.2324ZM48.8996 61.7887C48.6889 62.2539 48.4115 62.5694 48.0784 62.7813L49.1521 64.4687C49.8502 64.0244 50.3697 63.3906 50.7215 62.6137L48.8996 61.7887ZM48.0784 62.7813C47.7426 62.995 47.3323 63.1172 46.8105 63.1172V65.1172C47.6638 65.1172 48.4566 64.9113 49.1521 64.4687L48.0784 62.7813ZM46.8105 63.1172C46.3094 63.1172 45.9023 62.9973 45.5574 62.7795L44.4894 64.4705C45.1836 64.9089 45.968 65.1172 46.8105 65.1172V63.1172ZM45.562 62.7824C45.2152 62.5608 44.9305 62.2407 44.714 61.7843L42.907 62.6415C43.2687 63.4039 43.7926 64.0251 44.4849 64.4676L45.562 62.7824ZM44.7173 61.7913C44.5025 61.3293 44.3777 60.7652 44.371 60.0762L42.3711 60.0956C42.3801 61.0161 42.5483 61.87 42.9038 62.6345L44.7173 61.7913ZM44.3711 60.0859V59.4707H42.3711V60.0859H44.3711ZM44.3711 59.4707C44.3711 58.7664 44.4932 58.1869 44.7096 57.7098L42.8881 56.8839C42.5341 57.6646 42.3711 58.5344 42.3711 59.4707H44.3711ZM44.7096 57.7098C44.9247 57.2353 45.207 56.9137 45.5444 56.6981L44.4673 55.0129C43.7657 55.4613 43.2432 56.1006 42.8881 56.8839L44.7096 57.7098ZM45.546 56.6971C45.8953 56.4729 46.3024 56.3516 46.7988 56.3516V54.3516C45.9515 54.3516 45.1633 54.5662 44.4657 55.0139L45.546 56.6971ZM46.7988 56.3516C47.313 56.3516 47.7235 56.4739 48.065 56.6922L49.142 55.007C48.4445 54.5612 47.6518 54.3516 46.7988 54.3516V56.3516ZM48.0724 56.6969C48.4089 56.9078 48.6877 57.2238 48.8977 57.6934L50.7234 56.8769C50.3709 56.0887 49.845 55.4476 49.1347 55.0023L48.0724 56.6969ZM48.8986 57.6955C49.1108 58.167 49.2324 58.7505 49.2324 59.4707H51.2324C51.2324 58.5268 51.0728 57.6534 50.7225 56.8748L48.8986 57.6955ZM49.2324 59.4707V60.0098H51.2324V59.4707H49.2324ZM50.1133 59.459C50.1133 58.3332 49.8902 57.3108 49.3025 56.531L47.7053 57.7347C47.9301 58.0329 48.1133 58.5614 48.1133 59.459H50.1133ZM49.3046 56.5337C48.6932 55.7166 47.8162 55.3184 46.7988 55.3184V57.3184C47.2424 57.3184 47.5021 57.4631 47.7032 57.7319L49.3046 56.5337ZM46.7988 55.3184C45.7908 55.3184 44.9281 55.7241 44.3193 56.5301L45.9151 57.7356C46.1266 57.4556 46.385 57.3184 46.7988 57.3184V55.3184ZM44.3186 56.531C43.74 57.2986 43.5036 58.284 43.4903 59.3706L45.4902 59.395C45.5003 58.5597 45.6818 58.0451 45.9158 57.7347L44.3186 56.531ZM43.4902 59.3828V60.0098H45.4902V59.3828H43.4902ZM43.4902 60.0098C43.4902 61.1181 43.7208 62.1226 44.2975 62.9134L45.9135 61.735C45.6698 61.4009 45.4902 60.8624 45.4902 60.0098H43.4902ZM44.3021 62.9197C44.9133 63.7443 45.7858 64.1621 46.8105 64.1621V62.1621C46.39 62.1621 46.1257 62.0213 45.9088 61.7287L44.3021 62.9197ZM46.8105 64.1621C47.8147 64.1621 48.6879 63.7787 49.2959 62.9739L47.7002 61.7683C47.5114 62.0182 47.2595 62.1621 46.8105 62.1621V64.1621ZM49.298 62.9711C49.8725 62.2052 50.1001 61.2057 50.1132 60.1037L48.1134 60.0799C48.103 60.9545 47.9205 61.4745 47.698 61.7711L49.298 62.9711ZM50.1133 60.0918V59.459H48.1133V60.0918H50.1133ZM57.3288 60.5488L58.21 60.0761L57.9272 59.5488H57.3288V60.5488ZM55.3249 60.5488V59.5488H54.3249V60.5488H55.3249ZM55.3249 64V65H56.3249V64H55.3249ZM54.1941 64H53.1941V65H54.1941V64ZM54.1941 55.4688V54.4688H53.1941V55.4688H54.1941ZM59.2331 56.125L58.5861 56.8875L58.589 56.8899L59.2331 56.125ZM59.5788 59.4238L58.7722 58.8328L58.7684 58.838L59.5788 59.4238ZM58.3835 60.3086L58.0269 59.3743L56.9509 59.785L57.5086 60.7928L58.3835 60.3086ZM60.3874 63.9297H61.3874V63.6714L61.2624 63.4455L60.3874 63.9297ZM60.3874 64V65H61.3874V64H60.3874ZM59.1804 64L58.2992 64.4728L58.5821 65H59.1804V64ZM55.3249 59.6289H54.3249V60.6289H55.3249V59.6289ZM58.3835 59.1953L57.7269 58.4411L57.7225 58.445L58.3835 59.1953ZM58.407 56.8223L57.738 57.5656L57.7426 57.5697L58.407 56.8223ZM57.0476 56.3945L57.0542 55.3945H57.0476V56.3945ZM55.3249 56.3945V55.3945H54.3249V56.3945H55.3249ZM57.3288 59.5488H55.3249V61.5488H57.3288V59.5488ZM54.3249 60.5488V64H56.3249V60.5488H54.3249ZM55.3249 63H54.1941V65H55.3249V63ZM55.1941 64V55.4688H53.1941V64H55.1941ZM54.1941 56.4688H57.0183V54.4688H54.1941V56.4688ZM57.0183 56.4688C57.8406 56.4688 58.3142 56.6568 58.5861 56.8875L59.8801 55.3625C59.1208 54.7182 58.1179 54.4688 57.0183 54.4688V56.4688ZM58.589 56.8899C58.8316 57.0942 59.0124 57.4199 59.0124 58.0352H61.0124C61.0124 56.9786 60.6737 56.0308 59.8773 55.3601L58.589 56.8899ZM59.0124 58.0352C59.0124 58.3732 58.9246 58.6247 58.7722 58.8328L60.3855 60.0148C60.8111 59.4339 61.0124 58.7596 61.0124 58.0352H59.0124ZM58.7684 58.838C58.6112 59.0554 58.3802 59.2395 58.0269 59.3743L58.7401 61.2429C59.4103 60.9871 59.9761 60.5813 60.3893 60.0096L58.7684 58.838ZM57.5086 60.7928L59.5125 64.4139L61.2624 63.4455L59.2585 59.8244L57.5086 60.7928ZM59.3874 63.9297V64H61.3874V63.9297H59.3874ZM60.3874 63H59.1804V65H60.3874V63ZM60.0616 63.5272L58.21 60.0761L56.4476 61.0216L58.2992 64.4728L60.0616 63.5272ZM55.3249 60.6289H57.0534V58.6289H55.3249V60.6289ZM57.0534 60.6289C57.7859 60.6289 58.4876 60.4363 59.0445 59.9457L57.7225 58.445C57.6231 58.5325 57.4381 58.6289 57.0534 58.6289V60.6289ZM59.0401 59.9495C59.6138 59.4501 59.8816 58.7762 59.8816 58.0352H57.8816C57.8816 58.2629 57.8173 58.3624 57.7269 58.4411L59.0401 59.9495ZM59.8816 58.0352C59.8816 57.2978 59.6519 56.5909 59.0713 56.0749L57.7426 57.5697C57.7948 57.6161 57.8816 57.7178 57.8816 58.0352H59.8816ZM59.0759 56.079C58.5186 55.5774 57.7924 55.3994 57.0542 55.3946L57.041 57.3945C57.4903 57.3975 57.6703 57.5046 57.738 57.5656L59.0759 56.079ZM57.0476 55.3945H55.3249V57.3945H57.0476V55.3945ZM54.3249 56.3945V59.6289H56.3249V56.3945H54.3249ZM69.3002 56.3945V57.3945H70.3002V56.3945H69.3002ZM66.558 56.3945V55.3945H65.558V56.3945H66.558ZM66.558 64V65H67.558V64H66.558ZM65.4389 64H64.4389V65H65.4389V64ZM65.4389 56.3945H66.4389V55.3945H65.4389V56.3945ZM62.7026 56.3945H61.7026V57.3945H62.7026V56.3945ZM62.7026 55.4688V54.4688H61.7026V55.4688H62.7026ZM69.3002 55.4688H70.3002V54.4688H69.3002V55.4688ZM69.3002 55.3945H66.558V57.3945H69.3002V55.3945ZM65.558 56.3945V64H67.558V56.3945H65.558ZM66.558 63H65.4389V65H66.558V63ZM66.4389 64V56.3945H64.4389V64H66.4389ZM65.4389 55.3945H62.7026V57.3945H65.4389V55.3945ZM63.7026 56.3945V55.4688H61.7026V56.3945H63.7026ZM62.7026 56.4688H69.3002V54.4688H62.7026V56.4688ZM68.3002 55.4688V56.3945H70.3002V55.4688H68.3002Z" fill="white"/>
<path d="M66.6073 63.0801H70.6503V64H65.4765V55.4688H66.6073V63.0801ZM75.4205 64H74.2955V55.4688H75.4205V64ZM82.5873 62.5059L85.0248 55.4688H86.2552L83.0912 64H82.0951L78.9369 55.4688H80.1615L82.5873 62.5059ZM94.5059 60.0566H90.8087V63.0801H95.1036V64H89.6837V55.4688H95.045V56.3945H90.8087V59.1367H94.5059V60.0566Z" fill="#FFC107"/>
<path d="M66.6073 63.0801H65.6073V64.0801H66.6073V63.0801ZM70.6503 63.0801H71.6503V62.0801H70.6503V63.0801ZM70.6503 64V65H71.6503V64H70.6503ZM65.4765 64H64.4765V65H65.4765V64ZM65.4765 55.4688V54.4688H64.4765V55.4688H65.4765ZM66.6073 55.4688H67.6073V54.4688H66.6073V55.4688ZM66.6073 64.0801H70.6503V62.0801H66.6073V64.0801ZM69.6503 63.0801V64H71.6503V63.0801H69.6503ZM70.6503 63H65.4765V65H70.6503V63ZM66.4765 64V55.4688H64.4765V64H66.4765ZM65.4765 56.4688H66.6073V54.4688H65.4765V56.4688ZM65.6073 55.4688V63.0801H67.6073V55.4688H65.6073ZM75.4205 64V65H76.4205V64H75.4205ZM74.2955 64H73.2955V65H74.2955V64ZM74.2955 55.4688V54.4688H73.2955V55.4688H74.2955ZM75.4205 55.4688H76.4205V54.4688H75.4205V55.4688ZM75.4205 63H74.2955V65H75.4205V63ZM75.2955 64V55.4688H73.2955V64H75.2955ZM74.2955 56.4688H75.4205V54.4688H74.2955V56.4688ZM74.4205 55.4688V64H76.4205V55.4688H74.4205ZM82.5873 62.5059L81.6419 62.8318L82.585 65.5677L83.5322 62.8332L82.5873 62.5059ZM85.0248 55.4688V54.4688H84.3129L84.0798 55.1415L85.0248 55.4688ZM86.2552 55.4688L87.1928 55.8165L87.6927 54.4688H86.2552V55.4688ZM83.0912 64V65H83.7869L84.0288 64.3477L83.0912 64ZM82.0951 64L81.1573 64.3472L81.3989 65H82.0951V64ZM78.9369 55.4688V54.4688H77.5004L77.9991 55.8159L78.9369 55.4688ZM80.1615 55.4688L81.1069 55.1429L80.8745 54.4688H80.1615V55.4688ZM83.5322 62.8332L85.9697 55.796L84.0798 55.1415L81.6423 62.1786L83.5322 62.8332ZM85.0248 56.4688H86.2552V54.4688H85.0248V56.4688ZM85.3176 55.121L82.1536 63.6523L84.0288 64.3477L87.1928 55.8165L85.3176 55.121ZM83.0912 63H82.0951V65H83.0912V63ZM83.0329 63.6528L79.8747 55.1216L77.9991 55.8159L81.1573 64.3472L83.0329 63.6528ZM78.9369 56.4688H80.1615V54.4688H78.9369V56.4688ZM79.2161 55.7946L81.6419 62.8318L83.5327 62.18L81.1069 55.1429L79.2161 55.7946ZM94.5059 60.0566V61.0566H95.5059V60.0566H94.5059ZM90.8087 60.0566V59.0566H89.8087V60.0566H90.8087ZM90.8087 63.0801H89.8087V64.0801H90.8087V63.0801ZM95.1036 63.0801H96.1036V62.0801H95.1036V63.0801ZM95.1036 64V65H96.1036V64H95.1036ZM89.6837 64H88.6837V65H89.6837V64ZM89.6837 55.4688V54.4688H88.6837V55.4688H89.6837ZM95.045 55.4688H96.045V54.4688H95.045V55.4688ZM95.045 56.3945V57.3945H96.045V56.3945H95.045ZM90.8087 56.3945V55.3945H89.8087V56.3945H90.8087ZM90.8087 59.1367H89.8087V60.1367H90.8087V59.1367ZM94.5059 59.1367H95.5059V58.1367H94.5059V59.1367ZM94.5059 59.0566H90.8087V61.0566H94.5059V59.0566ZM89.8087 60.0566V63.0801H91.8087V60.0566H89.8087ZM90.8087 64.0801H95.1036V62.0801H90.8087V64.0801ZM94.1036 63.0801V64H96.1036V63.0801H94.1036ZM95.1036 63H89.6837V65H95.1036V63ZM90.6837 64V55.4688H88.6837V64H90.6837ZM89.6837 56.4688H95.045V54.4688H89.6837V56.4688ZM94.045 55.4688V56.3945H96.045V55.4688H94.045ZM95.045 55.3945H90.8087V57.3945H95.045V55.3945ZM89.8087 56.3945V59.1367H91.8087V56.3945H89.8087ZM90.8087 60.1367H94.5059V58.1367H90.8087V60.1367ZM93.5059 59.1367V60.0566H95.5059V59.1367H93.5059Z" fill="#FFC107"/>
<rect x="16" y="42" width="13" height="2" fill="#FF0000" stroke="#FF0000" stroke-width="8" stroke-linecap="round" stroke-linejoin="round"/>
<g filter="url(#filter0_d)">
<line x1="11.5" y1="69.5" x2="105.5" y2="69.5" stroke="black" stroke-linecap="round" stroke-linejoin="round"/>
</g>
<g filter="url(#filter1_d)">
<line x1="11.5" y1="50.5" x2="105.5" y2="50.5" stroke="black" stroke-linecap="round" stroke-linejoin="round"/>
</g>
<rect x="46" y="66" width="29" height="12" fill="#2A273C"/>
<path d="M59.1256 74.293C59.0202 75.1953 58.6862 75.8926 58.1237 76.3848C57.5651 76.873 56.8209 77.1172 55.8912 77.1172C54.8834 77.1172 54.0748 76.7559 53.4655 76.0332C52.86 75.3105 52.5573 74.3438 52.5573 73.1328V72.3125C52.5573 71.5195 52.6979 70.8223 52.9791 70.2207C53.2643 69.6191 53.6666 69.1582 54.1862 68.8379C54.7057 68.5137 55.3073 68.3516 55.9909 68.3516C56.8971 68.3516 57.6237 68.6055 58.1705 69.1133C58.7174 69.6172 59.0358 70.3164 59.1256 71.2109H57.9948C57.8971 70.5312 57.6842 70.0391 57.3561 69.7344C57.0319 69.4297 56.5768 69.2773 55.9909 69.2773C55.2721 69.2773 54.7077 69.543 54.2975 70.0742C53.8912 70.6055 53.6881 71.3613 53.6881 72.3418V73.168C53.6881 74.0938 53.8815 74.8301 54.2682 75.377C54.6549 75.9238 55.1959 76.1973 55.8912 76.1973C56.5162 76.1973 56.9948 76.0566 57.3268 75.7754C57.6627 75.4902 57.8854 74.9961 57.9948 74.293H59.1256ZM63.7904 76.0801H68.6712V77H62.4603V76.1562L67.1361 69.3945H62.5365V68.4688H68.4837V69.2949L63.7904 76.0801Z" fill="white"/>
<path d="M59.1256 74.293L60.1189 74.4091L60.2493 73.293H59.1256V74.293ZM58.1237 76.3848L58.7818 77.1377L58.7822 77.1373L58.1237 76.3848ZM53.4655 76.0332L52.6989 76.6754L52.701 76.6778L53.4655 76.0332ZM52.9791 70.2207L52.0755 69.7924L52.0733 69.7972L52.9791 70.2207ZM54.1862 68.8379L54.711 69.6891L54.7156 69.6862L54.1862 68.8379ZM58.1705 69.1133L57.4901 69.8461L57.4929 69.8487L58.1705 69.1133ZM59.1256 71.2109V72.2109H60.2311L60.1206 71.111L59.1256 71.2109ZM57.9948 71.2109L57.0049 71.3532L57.1282 72.2109H57.9948V71.2109ZM57.3561 69.7344L56.6713 70.4631L56.6756 70.4672L57.3561 69.7344ZM54.2975 70.0742L53.506 69.4631L53.5031 69.4668L54.2975 70.0742ZM57.3268 75.7754L57.9731 76.5384L57.9739 76.5378L57.3268 75.7754ZM57.9948 74.293V73.293H57.1383L57.0066 74.1393L57.9948 74.293ZM58.1324 74.1769C58.0492 74.8886 57.8027 75.3368 57.4652 75.6322L58.7822 77.1373C59.5696 76.4483 59.9911 75.502 60.1189 74.4091L58.1324 74.1769ZM57.4655 75.6319C57.1318 75.9236 56.6423 76.1172 55.8912 76.1172V78.1172C56.9996 78.1172 57.9983 77.8225 58.7818 77.1377L57.4655 75.6319ZM55.8912 76.1172C55.156 76.1172 54.6354 75.8694 54.23 75.3886L52.701 76.6778C53.5142 77.6423 54.6109 78.1172 55.8912 78.1172V76.1172ZM54.232 75.391C53.816 74.8945 53.5573 74.177 53.5573 73.1328H51.5573C51.5573 74.5105 51.904 75.7266 52.6989 76.6754L54.232 75.391ZM53.5573 73.1328V72.3125H51.5573V73.1328H53.5573ZM53.5573 72.3125C53.5573 71.6379 53.6766 71.09 53.885 70.6442L52.0733 69.7972C51.7192 70.5546 51.5573 71.4012 51.5573 72.3125H53.5573ZM53.8828 70.649C54.093 70.2056 54.3708 69.8988 54.711 69.6891L53.6614 67.9867C52.9625 68.4176 52.4356 69.0327 52.0755 69.7924L53.8828 70.649ZM54.7156 69.6862C55.0583 69.4724 55.472 69.3516 55.9909 69.3516V67.3516C55.1425 67.3516 54.3531 67.555 53.6567 67.9895L54.7156 69.6862ZM55.9909 69.3516C56.7017 69.3516 57.1661 69.5452 57.4901 69.8461L58.851 68.3805C58.0812 67.6657 57.0925 67.3516 55.9909 67.3516V69.3516ZM57.4929 69.8487C57.8239 70.1537 58.0599 70.6065 58.1306 71.3109L60.1206 71.111C60.0117 70.0263 59.6109 69.0807 58.8482 68.3779L57.4929 69.8487ZM59.1256 70.2109H57.9948V72.2109H59.1256V70.2109ZM58.9846 71.0687C58.8709 70.2775 58.6012 69.5259 58.0365 69.0016L56.6756 70.4672C56.7673 70.5522 56.9233 70.785 57.0049 71.3532L58.9846 71.0687ZM58.0409 69.0057C57.4786 68.4772 56.7484 68.2773 55.9909 68.2773V70.2773C56.4052 70.2773 56.5852 70.3822 56.6713 70.4631L58.0409 69.0057ZM55.9909 68.2773C54.9877 68.2773 54.1205 68.6672 53.506 69.4631L55.089 70.6853C55.2948 70.4188 55.5565 70.2773 55.9909 70.2773V68.2773ZM53.5031 69.4668C52.9141 70.2371 52.6881 71.2401 52.6881 72.3418H54.6881C54.6881 71.4825 54.8684 70.9738 55.0919 70.6817L53.5031 69.4668ZM52.6881 72.3418V73.168H54.6881V72.3418H52.6881ZM52.6881 73.168C52.6881 74.2236 52.9078 75.1851 53.4517 75.9543L55.0847 74.7996C54.8552 74.4751 54.6881 73.9639 54.6881 73.168H52.6881ZM53.4517 75.9543C54.0342 76.778 54.886 77.1973 55.8912 77.1973V75.1973C55.5059 75.1973 55.2757 75.0697 55.0847 74.7996L53.4517 75.9543ZM55.8912 77.1973C56.6516 77.1973 57.3959 77.0274 57.9731 76.5384L56.6805 75.0123C56.5937 75.0858 56.3809 75.1973 55.8912 75.1973V77.1973ZM57.9739 76.5378C58.5764 76.0264 58.8579 75.2501 58.9829 74.4467L57.0066 74.1393C56.9129 74.7421 56.7491 74.9541 56.6797 75.013L57.9739 76.5378ZM57.9948 75.293H59.1256V73.293H57.9948V75.293ZM63.7904 76.0801L62.968 75.5112L61.8828 77.0801H63.7904V76.0801ZM68.6712 76.0801H69.6712V75.0801H68.6712V76.0801ZM68.6712 77V78H69.6712V77H68.6712ZM62.4603 77H61.4603V78H62.4603V77ZM62.4603 76.1562L61.6378 75.5875L61.4603 75.8442V76.1562H62.4603ZM67.1361 69.3945L67.9586 69.9633L69.0434 68.3945H67.1361V69.3945ZM62.5365 69.3945H61.5365V70.3945H62.5365V69.3945ZM62.5365 68.4688V67.4688H61.5365V68.4688H62.5365ZM68.4837 68.4688H69.4837V67.4688H68.4837V68.4688ZM68.4837 69.2949L69.3062 69.8638L69.4837 69.6071V69.2949H68.4837ZM63.7904 77.0801H68.6712V75.0801H63.7904V77.0801ZM67.6712 76.0801V77H69.6712V76.0801H67.6712ZM68.6712 76H62.4603V78H68.6712V76ZM63.4603 77V76.1562H61.4603V77H63.4603ZM63.2828 76.725L67.9586 69.9633L66.3136 68.8258L61.6378 75.5875L63.2828 76.725ZM67.1361 68.3945H62.5365V70.3945H67.1361V68.3945ZM63.5365 69.3945V68.4688H61.5365V69.3945H63.5365ZM62.5365 69.4688H68.4837V67.4688H62.5365V69.4688ZM67.4837 68.4688V69.2949H69.4837V68.4688H67.4837ZM67.6613 68.726L62.968 75.5112L64.6128 76.649L69.3062 69.8638L67.6613 68.726Z" fill="white"/>
<path d="M17.5137 44.54H19.5352V45H16.9482V40.7344H17.5137V44.54ZM20.7803 45H20.2178V40.7344H20.7803V45ZM23.2236 44.2529L24.4424 40.7344H25.0576L23.4756 45H22.9775L21.3984 40.7344H22.0107L23.2236 44.2529ZM28.043 43.0283H26.1943V44.54H28.3418V45H25.6318V40.7344H28.3125V41.1973H26.1943V42.5684H28.043V43.0283Z" fill="white"/>
<path d="M17.5137 44.54H17.1137V44.94H17.5137V44.54ZM19.5352 44.54H19.9352V44.14H19.5352V44.54ZM19.5352 45V45.4H19.9352V45H19.5352ZM16.9482 45H16.5482V45.4H16.9482V45ZM16.9482 40.7344V40.3344H16.5482V40.7344H16.9482ZM17.5137 40.7344H17.9137V40.3344H17.5137V40.7344ZM17.5137 44.94H19.5352V44.14H17.5137V44.94ZM19.1352 44.54V45H19.9352V44.54H19.1352ZM19.5352 44.6H16.9482V45.4H19.5352V44.6ZM17.3482 45V40.7344H16.5482V45H17.3482ZM16.9482 41.1344H17.5137V40.3344H16.9482V41.1344ZM17.1137 40.7344V44.54H17.9137V40.7344H17.1137ZM20.7803 45V45.4H21.1803V45H20.7803ZM20.2178 45H19.8178V45.4H20.2178V45ZM20.2178 40.7344V40.3344H19.8178V40.7344H20.2178ZM20.7803 40.7344H21.1803V40.3344H20.7803V40.7344ZM20.7803 44.6H20.2178V45.4H20.7803V44.6ZM20.6178 45V40.7344H19.8178V45H20.6178ZM20.2178 41.1344H20.7803V40.3344H20.2178V41.1344ZM20.3803 40.7344V45H21.1803V40.7344H20.3803ZM23.2236 44.2529L22.8455 44.3833L23.2227 45.4777L23.6016 44.3838L23.2236 44.2529ZM24.4424 40.7344V40.3344H24.1576L24.0644 40.6035L24.4424 40.7344ZM25.0576 40.7344L25.4327 40.8735L25.6326 40.3344H25.0576V40.7344ZM23.4756 45V45.4H23.7539L23.8506 45.1391L23.4756 45ZM22.9775 45L22.6024 45.1389L22.6991 45.4H22.9775V45ZM21.3984 40.7344V40.3344H20.8238L21.0233 40.8732L21.3984 40.7344ZM22.0107 40.7344L22.3889 40.604L22.296 40.3344H22.0107V40.7344ZM23.6016 44.3838L24.8204 40.8653L24.0644 40.6035L22.8457 44.122L23.6016 44.3838ZM24.4424 41.1344H25.0576V40.3344H24.4424V41.1344ZM24.6826 40.5953L23.1005 44.8609L23.8506 45.1391L25.4327 40.8735L24.6826 40.5953ZM23.4756 44.6H22.9775V45.4H23.4756V44.6ZM23.3527 44.8611L21.7736 40.5955L21.0233 40.8732L22.6024 45.1389L23.3527 44.8611ZM21.3984 41.1344H22.0107V40.3344H21.3984V41.1344ZM21.6326 40.8647L22.8455 44.3833L23.6018 44.1226L22.3889 40.604L21.6326 40.8647ZM28.043 43.0283V43.4283H28.443V43.0283H28.043ZM26.1943 43.0283V42.6283H25.7943V43.0283H26.1943ZM26.1943 44.54H25.7943V44.94H26.1943V44.54ZM28.3418 44.54H28.7418V44.14H28.3418V44.54ZM28.3418 45V45.4H28.7418V45H28.3418ZM25.6318 45H25.2318V45.4H25.6318V45ZM25.6318 40.7344V40.3344H25.2318V40.7344H25.6318ZM28.3125 40.7344H28.7125V40.3344H28.3125V40.7344ZM28.3125 41.1973V41.5973H28.7125V41.1973H28.3125ZM26.1943 41.1973V40.7973H25.7943V41.1973H26.1943ZM26.1943 42.5684H25.7943V42.9684H26.1943V42.5684ZM28.043 42.5684H28.443V42.1684H28.043V42.5684ZM28.043 42.6283H26.1943V43.4283H28.043V42.6283ZM25.7943 43.0283V44.54H26.5943V43.0283H25.7943ZM26.1943 44.94H28.3418V44.14H26.1943V44.94ZM27.9418 44.54V45H28.7418V44.54H27.9418ZM28.3418 44.6H25.6318V45.4H28.3418V44.6ZM26.0318 45V40.7344H25.2318V45H26.0318ZM25.6318 41.1344H28.3125V40.3344H25.6318V41.1344ZM27.9125 40.7344V41.1973H28.7125V40.7344H27.9125ZM28.3125 40.7973H26.1943V41.5973H28.3125V40.7973ZM25.7943 41.1973V42.5684H26.5943V41.1973H25.7943ZM26.1943 42.9684H28.043V42.1684H26.1943V42.9684ZM27.643 42.5684V43.0283H28.443V42.5684H27.643Z" fill="white"/>
<path d="M46.3146 39.6854C45.4355 38.8064 44.2432 38.3125 43 38.3125C41.7568 38.3125 40.5645 38.8064 39.6854 39.6854C38.8064 40.5645 38.3125 41.7568 38.3125 43C38.3125 44.2432 38.8064 45.4355 39.6854 46.3146C40.5645 47.1937 41.7568 47.6875 43 47.6875C44.2432 47.6875 45.4355 47.1937 46.3146 46.3146C47.1937 45.4355 47.6875 44.2432 47.6875 43C47.6875 41.7568 47.1937 40.5645 46.3146 39.6854ZM43.5194 40.104C43.6999 39.7589 43.7437 39.3899 43.6505 38.9898C45.3705 39.2678 46.7322 40.6295 47.0102 42.3495C46.6101 42.2563 46.2411 42.3001 45.896 42.4806C45.3865 42.747 45.0099 43.2775 44.6456 43.7906C44.3346 44.2285 44.0131 44.6814 43.6204 44.9607C43.2035 45.2574 42.7502 45.324 42.1939 45.1702C41.7364 45.0437 41.3461 44.6607 41.3427 44.6573C41.3388 44.6534 40.9555 44.2609 40.8299 43.8061C40.6761 43.2498 40.7426 42.7965 41.0393 42.3796C41.3186 41.987 41.7715 41.6654 42.2094 41.3544C42.7225 40.9902 43.253 40.6135 43.5194 40.104ZM43 47.0625C40.76 47.0625 38.9375 45.2401 38.9375 43C38.9375 40.7647 40.7523 38.9453 42.9859 38.9377C43.2949 39.7598 42.7672 40.1919 41.8477 40.8448C40.9222 41.502 39.7706 42.3196 40.2274 43.9727C40.3986 44.5919 40.8804 45.0789 40.9008 45.0993C40.9212 45.1197 41.4082 45.6014 42.0274 45.7726C42.2598 45.8391 42.5002 45.8739 42.742 45.8759C43.9315 45.8759 44.6005 44.9335 45.1551 44.1524C45.8081 43.2328 46.2402 42.705 47.0623 43.0142C47.0547 45.2477 45.2353 47.0625 43 47.0625Z" fill="white" fill-opacity="0.5"/>
<g clip-path="url(#clip0)">
<path d="M52.7104 39.7097C52.7104 39.7097 54.8158 38.6576 55.8683 38.1309C56.0599 38.0365 56.272 37.9914 56.4854 37.9997C56.8046 38.0192 57.1842 38.328 57.1842 38.328L61 42.1442V46.223H59.2237V47.9992H55.0787L51.3287 44.2492C51.1262 44.0409 51 43.7472 51 43.4597C51 43.3267 51.075 43.1188 51.1317 42.9992L52.7104 39.7097ZM52.9933 39.9926V44.9038C52.9942 45.1301 53.0021 45.3305 53.2008 45.5322L55.2517 47.5826H58.8071V45.8063L52.9933 39.9926ZM58.0163 39.7101C57.6417 39.3367 57.2625 38.9684 56.8746 38.6088C56.7487 38.4976 56.6383 38.4138 56.4288 38.4163C56.2746 38.4222 56.0662 38.4976 56.0662 38.4976L53.6421 39.7097L58.0163 39.7101Z" fill="white" fill-opacity="0.5"/>
</g>
<g opacity="0.5">
<path d="M75.9167 46.3333C75.9167 46.5625 76.1042 46.75 76.3333 46.75H79.6667C79.8958 46.75 80.0833 46.5625 80.0833 46.3333V45.0833H75.9167V46.3333ZM80.5 40.9167C80.2708 40.9167 80.0833 41.1042 80.0833 41.3333V40.0833C80.0833 39.625 79.7083 39.25 79.25 39.25H75.9167C75.4583 39.25 75.0833 39.625 75.0833 40.0833V42.5C75.0833 42.5542 75.0875 42.6083 75.1 42.6625L75.4333 44.3292C75.4708 44.525 75.6417 44.6625 75.8417 44.6625H80.1583C80.3458 44.6625 80.5292 44.5125 80.5667 44.3292L80.9 42.6625C80.9125 42.6083 80.9167 42.5542 80.9167 42.5V41.3333C80.9167 41.1042 80.7292 40.9167 80.5 40.9167ZM79.25 42.1667H75.9167V40.9167H79.25V42.1667Z" fill="white"/>
</g>
<path d="M70.9462 40.0537C70.5606 39.665 70.1016 39.3566 69.596 39.1465C69.0903 38.9364 68.548 38.8287 68.0004 38.8296C67.4527 38.8287 66.9103 38.9365 66.4045 39.1466C65.8987 39.3567 65.4396 39.665 65.0537 40.0537C63.4292 41.6779 63.4292 44.3216 65.0537 45.9462C65.4396 46.335 65.8988 46.6434 66.4046 46.8536C66.9105 47.0637 67.453 47.1714 68.0008 47.1704C68.5484 47.1714 69.0907 47.0637 69.5963 46.8536C70.102 46.6436 70.561 46.3353 70.9467 45.9466C72.5712 44.3225 72.5712 41.6787 70.9462 40.0537ZM68.0754 39.6666H67.9258C67.9512 39.6662 67.9754 39.6629 68.0008 39.6629C68.0262 39.6629 68.05 39.6662 68.0754 39.6666ZM70.6012 45.0833H69.6667L69.1425 46.1316C68.7768 46.2667 68.3902 46.3363 68.0004 46.3371C67.6099 46.3364 67.2225 46.2667 66.8562 46.1312L66.3333 45.0875H65.4021C65.0585 44.6603 64.8262 44.1547 64.7258 43.6158L65.5 42.5833L64.9933 41.5696C65.155 41.2256 65.3747 40.9122 65.6429 40.6429C66.0182 40.2663 66.4783 39.9849 66.9846 39.8225L68 40.5L69.0158 39.8229C69.522 39.9855 69.982 40.2666 70.3575 40.6429C70.6254 40.9118 70.845 41.2249 71.0067 41.5683L70.5 42.5833L71.2742 43.6158C71.1743 44.153 70.9431 44.6571 70.6012 45.0833Z" fill="white" fill-opacity="0.5"/>
<path d="M66.5417 42.5833L67.1667 44.25H68.8333L69.4583 42.5833L68 41.5417L66.5417 42.5833Z" fill="white" fill-opacity="0.5"/>
<g clip-path="url(#clip1)">
<path d="M92.6836 45.5025L89.6494 45.2C89.6039 45.2065 89.5746 45.2033 89.5616 45.1903L83.2983 38.9269C83.1552 38.7838 83.0641 38.6195 83.0251 38.4342C82.9861 38.2488 83.0023 38.1301 83.0739 38.0781C83.1259 38.0065 83.2446 37.9903 83.43 38.0293C83.6153 38.0683 83.7828 38.1594 83.9324 38.3025L89.825 44.2049L92.6836 43.6293C92.7681 43.6293 92.8413 43.6602 92.9031 43.722C92.9649 43.7838 92.9958 43.8569 92.9958 43.9415V45.1903C92.9958 45.2748 92.9649 45.348 92.9031 45.4098C92.8413 45.4716 92.7681 45.5025 92.6836 45.5025ZM87.6885 46.7512C87.9486 46.7512 88.1698 46.813 88.3519 46.9366C88.534 47.0602 88.6251 47.2082 88.6251 47.3805C88.6251 47.5529 88.534 47.6992 88.3519 47.8195C88.1698 47.9399 87.9486 48 87.6885 48C87.4283 48 87.2072 47.9399 87.0251 47.8195C86.8429 47.6992 86.7519 47.5529 86.7519 47.3805C86.7519 47.2082 86.8429 47.0602 87.0251 46.9366C87.2072 46.813 87.4283 46.7512 87.6885 46.7512Z" fill="white" fill-opacity="0.5"/>
</g>
<defs>
<filter id="filter0_d" x="7" y="61" width="103" height="9" filterUnits="userSpaceOnUse" color-interpolation-filters="sRGB">
<feFlood flood-opacity="0" result="BackgroundImageFix"/>
<feColorMatrix in="SourceAlpha" type="matrix" values="0 0 0 0 0 0 0 0 0 0 0 0 0 0 0 0 0 0 127 0"/>
<feOffset dy="-4"/>
<feGaussianBlur stdDeviation="2"/>
<feColorMatrix type="matrix" values="0 0 0 0 0 0 0 0 0 0 0 0 0 0 0 0 0 0 0.25 0"/>
<feBlend mode="normal" in2="BackgroundImageFix" result="effect1_dropShadow"/>
<feBlend mode="normal" in="SourceGraphic" in2="effect1_dropShadow" result="shape"/>
</filter>
<filter id="filter1_d" x="7" y="50" width="103" height="9" filterUnits="userSpaceOnUse" color-interpolation-filters="sRGB">
<feFlood flood-opacity="0" result="BackgroundImageFix"/>
<feColorMatrix in="SourceAlpha" type="matrix" values="0 0 0 0 0 0 0 0 0 0 0 0 0 0 0 0 0 0 127 0"/>
<feOffset dy="4"/>
<feGaussianBlur stdDeviation="2"/>
<feColorMatrix type="matrix" values="0 0 0 0 0 0 0 0 0 0 0 0 0 0 0 0 0 0 0.25 0"/>
<feBlend mode="normal" in2="BackgroundImageFix" result="effect1_dropShadow"/>
<feBlend mode="normal" in="SourceGraphic" in2="effect1_dropShadow" result="shape"/>
</filter>
<clipPath id="clip0">
<rect width="10" height="10" fill="white" transform="translate(51 38)"/>
</clipPath>
<clipPath id="clip1">
<rect width="10" height="10" fill="white" transform="translate(83 38)"/>
</clipPath>
</defs>
</svg>
